<?xml version="1.0" encoding="UTF-8" standalone="no"?>
<!-- Created with Inkscape (http://www.inkscape.org/) -->

<svg
   xmlns:dc="http://purl.org/dc/elements/1.1/"
   xmlns:cc="http://creativecommons.org/ns#"
   xmlns:rdf="http://www.w3.org/1999/02/22-rdf-syntax-ns#"
   xmlns:svg="http://www.w3.org/2000/svg"
   xmlns="http://www.w3.org/2000/svg"
   xmlns:sodipodi="http://sodipodi.sourceforge.net/DTD/sodipodi-0.dtd"
   xmlns:inkscape="http://www.inkscape.org/namespaces/inkscape"
   width="512"
   height="512"
   viewBox="0 0 511.99999 511.99999"
   id="svg3552"
   version="1.1"
   inkscape:version="0.91 r13725"
   sodipodi:docname="grass-add.svg"
   inkscape:export-filename="/home/gajop/games_spring/SB/SB-C.sdd/LuaUI/images/scenedit/modifications/grass-add.png"
   inkscape:export-xdpi="90"
   inkscape:export-ydpi="90">
  <defs
     id="defs3554" />
  <sodipodi:namedview
     id="base"
     pagecolor="#000000"
     bordercolor="#666666"
     borderopacity="1.0"
     inkscape:pageopacity="0"
     inkscape:pageshadow="2"
     inkscape:zoom="0.99574998"
     inkscape:cx="16.986127"
     inkscape:cy="120.84196"
     inkscape:document-units="px"
     inkscape:current-layer="layer1"
     showgrid="false"
     units="px"
     inkscape:window-width="1855"
     inkscape:window-height="1056"
     inkscape:window-x="65"
     inkscape:window-y="24"
     inkscape:window-maximized="1" />
  <metadata
     id="metadata3557">
    <rdf:RDF>
      <cc:Work
         rdf:about="">
        <dc:format>image/svg+xml</dc:format>
        <dc:type
           rdf:resource="http://purl.org/dc/dcmitype/StillImage" />
        <dc:title />
      </cc:Work>
    </rdf:RDF>
  </metadata>
  <g
     inkscape:label="Layer 1"
     inkscape:groupmode="layer"
     id="layer1"
     transform="translate(0,-540.36219)">
    <rect
       style="fill:#ffffff"
       id="rect3591-1"
       width="84.859909"
       height="229.37032"
       x="-699.96277"
       y="279.70242"
       transform="matrix(0,-1,1,0,0,0)" />
    <rect
       style="fill:#ffffff"
       id="rect3591-1-2"
       width="84.859909"
       height="229.37032"
       x="351.95764"
       y="542.84766" />
    <path
       inkscape:connector-curvature="0"
       style="fill:#ffffff"
       d="M 17.087381,1032.6253 46.216409,767.8597 c 5.391475,86.24116 3.274312,185.76868 28.492757,236.9347 8.979113,-68.05525 12.586785,-134.77074 8.463846,-199.54376 12.200536,57.44869 28.482338,113.5351 31.627638,174.00488 5.92597,-44.82344 10.15068,-89.36642 25.48128,-135.75651 -0.60902,52.23993 -13.75113,100.08847 10.15871,126.18841 11.56586,-40.87681 23.2327,-81.65745 25.21043,-132.1264 17.04469,49.57305 14.69834,108.8392 19.99205,164.29248 6.74495,-54.53974 12.24461,-206.61972 37.58887,-254.9651 -2.4922,100.15258 -3.09481,179.45406 21.95535,219.75389 24.75928,-30.99057 26.89807,-91.70636 27.47024,-149.32334 17.47902,49.48329 29.21477,105.85817 30.33666,174.9665 6.91244,-57.66105 14.95878,-115.32211 34.77052,-172.97915 -4.60615,70.75108 -1.02893,125.77169 15.64634,155.59789 11.02656,-44.51492 20.4376,-89.02985 23.33528,-133.55279 14.76085,66.33565 10.41753,127.88726 13.38734,191.2739 z"
       id="path4" />
  </g>
</svg>
