<?xml version="1.0" encoding="UTF-8" standalone="no"?>
<!-- Created with Inkscape (http://www.inkscape.org/) -->

<svg
   xmlns:dc="http://purl.org/dc/elements/1.1/"
   xmlns:cc="http://creativecommons.org/ns#"
   xmlns:rdf="http://www.w3.org/1999/02/22-rdf-syntax-ns#"
   xmlns:svg="http://www.w3.org/2000/svg"
   xmlns="http://www.w3.org/2000/svg"
   xmlns:sodipodi="http://sodipodi.sourceforge.net/DTD/sodipodi-0.dtd"
   xmlns:inkscape="http://www.inkscape.org/namespaces/inkscape"
   width="512"
   height="512"
   viewBox="0 0 511.99999 511.99999"
   id="svg3552"
   version="1.1"
   inkscape:version="0.91 r13725"
   sodipodi:docname="object-brush-add.svg"
   inkscape:export-filename="/home/gajop/games_spring/SB/SB-C.sdd/LuaUI/images/scenedit/modifications/object-brush-add.png"
   inkscape:export-xdpi="90"
   inkscape:export-ydpi="90">
  <defs
     id="defs3554" />
  <sodipodi:namedview
     id="base"
     pagecolor="#000000"
     bordercolor="#666666"
     borderopacity="1.0"
     inkscape:pageopacity="0"
     inkscape:pageshadow="2"
     inkscape:zoom="0.99574998"
     inkscape:cx="-3.3413496"
     inkscape:cy="241.73426"
     inkscape:document-units="px"
     inkscape:current-layer="layer1"
     showgrid="false"
     units="px"
     inkscape:window-width="1855"
     inkscape:window-height="1056"
     inkscape:window-x="65"
     inkscape:window-y="24"
     inkscape:window-maximized="1" />
  <metadata
     id="metadata3557">
    <rdf:RDF>
      <cc:Work
         rdf:about="">
        <dc:format>image/svg+xml</dc:format>
        <dc:type
           rdf:resource="http://purl.org/dc/dcmitype/StillImage" />
        <dc:title />
      </cc:Work>
    </rdf:RDF>
  </metadata>
  <g
     inkscape:label="Layer 1"
     inkscape:groupmode="layer"
     id="layer1"
     transform="translate(0,-540.36219)">
    <rect
       style="fill:#ffffff"
       id="rect3591-1"
       width="84.859909"
       height="229.37032"
       x="-699.96277"
       y="279.70242"
       transform="matrix(0,-1,1,0,0,0)" />
    <rect
       style="fill:#ffffff"
       id="rect3591-1-2"
       width="84.859909"
       height="229.37032"
       x="351.95764"
       y="542.84766" />
    <path
       inkscape:connector-curvature="0"
       style="fill:#ffffff"
       d="m 124.32902,711.53124 c -7.32536,11.63543 -15.60403,23.73357 -29.050588,35.17248 0.320554,0.3115 0.650865,0.6202 0.979084,0.931 l 16.410994,-0.28292 -2.45781,7.45637 c -0.35191,1.0662 -0.74216,2.12403 -1.16933,3.1721 1.95329,1.35539 4.00344,2.70032 6.18251,4.03341 l 17.45767,10.68282 -32.04847,-0.55261 c -1.361655,1.72403 -2.829237,3.4146 -4.393683,5.06964 6.132353,8.02571 15.362233,15.82772 26.950963,22.83323 l -8.64382,-0.25435 -0.0105,3.95675 c 5.94419,4.43062 12.39848,8.67448 18.92804,12.87793 12.62008,-8.06125 22.15309,-17.073 27.53284,-26.21299 l -39.96687,0.68989 17.45768,-10.68283 c 6.2508,-3.82435 11.51556,-7.74557 16.08485,-11.75388 -3.55257,-3.8153 -6.27171,-7.63896 -7.84452,-11.63056 l -2.8153,-7.13999 20.72593,-1.27038 c -15.7664,-10.08771 -31.58506,-21.30711 -40.30972,-37.09511 z m 163.48622,9.21455 c -4.55535,9.03266 -9.67238,20.22001 -16.47231,31.10074 7.61456,12.79918 17.02283,25.08478 32.59411,36.50278 l 14.22983,10.43196 -36.59199,-0.7561 c 4.84734,8.45707 13.89255,18.7162 24.09733,27.90705 13.3497,12.02358 28.52098,22.69804 37.5655,27.81437 l 7.90236,4.47243 c 0.004,-2.90102 0.004,-5.1442 0.0105,-9.73649 -11.96923,-8.31909 -20.74335,-17.97544 -25.31126,-29.40738 l -2.86757,-7.17624 30.38647,-1.79789 c -6.90585,-3.03691 -13.76084,-5.75814 -20.01583,-8.4041 -5.92189,-2.50451 -11.30999,-4.95257 -15.83539,-7.82571 -4.52608,-2.87245 -8.43336,-6.23966 -10.35391,-11.10999 l -2.73864,-6.9421 25.14052,-2.21461 c -16.89535,-14.09464 -32.90773,-33.97598 -41.73971,-52.85872 z m -223.341387,4.00205 c -8.724654,15.788 -24.543317,27.0081 -40.30832,37.09651 l 20.723144,1.26966 -2.813213,7.13861 c -3.330979,8.4494 -11.717657,16.81029 -23.123121,25.69523 -0.205573,7.81176 -0.273169,12.3065 -0.26829,12.35667 0.0035,0.0306 0.132403,0.76655 0.202088,2.17908 0.02648,0.51706 0.02787,2.21391 0.04599,3.03689 l 9.636144,0.5554 -0.0028,0.38327 -2.721924,6.81388 c -0.822292,2.05921 -1.740749,4.22992 -2.898926,6.43338 l 8.03128,-4.91284 c 26.045741,-15.93713 35.135549,-33.56274 46.964702,-52.14792 l -0.162368,4.43619 3.11774,-1.30661 c -0.889887,-1.88291 -1.659914,-3.79927 -2.303113,-5.74907 l -2.458513,-7.45638 18.523861,0.32055 C 80.530143,749.16572 72.006184,736.71079 64.473853,724.74645 Z m 124.760467,18.40818 c -7.53164,11.96365 -16.0556,24.41788 -30.18368,36.13902 l 18.52386,-0.31916 -2.45781,7.45638 c -4.63899,14.06815 -15.86884,26.40393 -31.27079,36.87072 l 12.4849,8.06473 12.73368,0.47944 -2.87593,7.317 c -1.60626,4.08568 -3.73167,7.94417 -6.27868,11.60268 l 6.08843,-4.31355 c 12.48282,-8.84313 25.62555,-19.16009 36.09721,-28.94327 6.9867,-6.52608 12.52811,-12.9058 16.08557,-18.05836 l -35.21708,-2.58883 11.49814,-8.90096 c 7.22642,-5.59367 14.61519,-11.10791 21.54962,-16.84862 -10.79432,-7.83685 -20.5782,-16.7413 -26.77535,-27.95792 z m 64.85652,0.47387 c -8.89191,18.67926 -25.24506,32.08331 -41.18916,44.25462 l 21.87435,1.60695 -2.22575,6.77764 c -3.13795,9.54694 -11.83473,19.10225 -22.84507,29.38787 -7.52189,7.02641 -16.19846,14.13923 -25.0144,20.85415 l 34.33974,2.43482 -2.27176,6.81526 c -7.85567,23.55796 -32.64428,39.66791 -52.83293,52.68033 9.39851,5.61388 19.28204,10.75948 27.74397,15.55246 47.62324,13.11485 102.85197,4.85849 140.01537,-11.14972 -9.19154,-5.26406 -16.61586,-10.13718 -22.82068,-16.03189 -8.2264,-7.81596 -13.98732,-17.39356 -18.38101,-30.78925 l -2.10242,-6.41667 36.21568,-4.60622 c -8.27449,-5.72121 -17.5399,-12.81522 -26.3879,-20.78378 -14.0138,-12.62217 -26.75514,-26.48267 -30.60249,-40.46441 l -1.98256,-7.2069 19.41932,0.40208 C 270.28789,772.96131 261.66916,758.03811 254.09153,743.63059 Z M 81.723163,785.52774 c -7.530938,11.96364 -16.0542,24.41788 -30.182983,36.13902 l 18.523862,-0.31776 -2.459906,7.45428 c -5.742105,17.42004 -21.58446,32.18505 -42.943835,44.03093 l 36.891629,1.38674 -2.875234,7.31422 c -7.700274,19.58866 -20.738475,36.91533 -42.534779,49.88454 51.487305,15.72528 109.109753,21.99839 161.379623,-2.48918 -8.99504,-4.91633 -18.74546,-10.21106 -28.10425,-16.41796 -12.59222,-8.35044 -24.05901,-17.93432 -29.06592,-30.46172 l -2.86828,-7.17764 33.72791,-1.9958 c -8.24243,-5.31353 -16.31692,-10.78735 -23.38445,-16.29462 -11.32045,-8.8243 -20.25067,-16.78449 -23.70709,-25.54957 l -2.8153,-7.1407 20.72454,-1.27036 C 106.26578,812.53444 90.448513,801.31504 81.722466,785.52843 Z m -28.236661,47.25808 -34.15716,0.58814 c -0.117072,0.15192 -0.222993,0.30663 -0.342853,0.45714 -0.192333,14.97896 -0.312192,23.26389 -0.349822,29.53282 16.266044,-9.09887 28.475681,-19.74754 34.849835,-30.5781 z m 73.639708,8.64312 c 2.27872,2.06827 4.79647,4.20553 7.55742,6.35812 2.45294,1.91149 5.06336,3.84945 7.76299,5.7895 3.7909,-3.60763 7.02711,-7.34837 9.54137,-11.21383 l -24.86248,-0.93379 z m 29.02968,14.2354 c -1.30312,1.55051 -2.69335,3.05781 -4.14421,4.53236 6.46475,4.31494 13.20685,8.53093 19.77682,12.41452 l 12.29605,7.26612 c 7.90235,-6.56439 14.72808,-13.53506 18.96497,-20.8862 l -46.89363,-3.3268 z m 194.98278,7.20132 -47.6532,6.06127 c 3.25155,7.97901 7.00133,13.76293 12.0417,18.80957 l -0.14634,-6.68982 c 12.16365,-0.69408 24.18443,-2.33587 35.81847,-5.13097 -0.0453,-4.99926 -0.0585,-8.65496 -0.0607,-13.05075 z m -170.00532,19.40887 -46.26715,2.73726 c 2.71984,3.6146 6.33096,7.19575 10.52046,10.67167 4.47173,0.89477 8.99294,1.71636 13.55736,2.44179 7.41317,-4.96162 15.13575,-10.25286 22.18933,-15.85072 z m -153.130224,1.83971 -0.202089,24.82067 c 7.48843,-7.22642 13.025658,-15.30996 17.302969,-24.17678 l -17.10088,-0.64389 z m 288.462014,46.36471 c -9.93858,3.18951 -20.56913,5.85081 -31.62339,7.82013 l 3.86756,92.11062 29.94954,0 -2.19371,-99.93075 z m -126.70958,4.87939 c -1.85573,0.97839 -3.71912,1.91636 -5.5874,2.81948 l -0.64598,79.63268 36.71184,0 -1.69057,-76.99995 c -9.71838,-1.08152 -19.36428,-2.87314 -28.78928,-5.45221 z m 83.99919,4.66407 c -10.51209,1.38814 -21.31128,2.12542 -32.18087,2.08639 l -0.26899,97.3802 36.62682,0 -4.17696,-99.46729 z m -246.255452,6.37345 -0.643896,79.46964 30.847088,0 1.376293,-72.75054 c -10.705122,-1.71705 -21.261118,-4.00693 -31.580182,-6.71979 z m 121.754922,4.3693 c -8.06683,1.99998 -16.18521,3.43899 -24.31892,4.37905 l 2.72819,46.12849 23.04159,0 -1.45225,-50.50824 z m -79.053594,3.92192 -1.747717,92.37542 50.655961,-1.5937 -5.28497,-89.34411 c -14.613102,0.89895 -29.223414,0.29546 -43.623274,-1.43692 z"
       id="path4" />
  </g>
</svg>
