<?xml version="1.0" encoding="UTF-8" standalone="no"?>
<!-- Created with Inkscape (http://www.inkscape.org/) -->

<svg
   xmlns:dc="http://purl.org/dc/elements/1.1/"
   xmlns:cc="http://creativecommons.org/ns#"
   xmlns:rdf="http://www.w3.org/1999/02/22-rdf-syntax-ns#"
   xmlns:svg="http://www.w3.org/2000/svg"
   xmlns="http://www.w3.org/2000/svg"
   xmlns:sodipodi="http://sodipodi.sourceforge.net/DTD/sodipodi-0.dtd"
   xmlns:inkscape="http://www.inkscape.org/namespaces/inkscape"
   width="512"
   height="512"
   viewBox="0 0 511.99999 511.99999"
   id="svg3552"
   version="1.1"
   inkscape:version="0.91 r13725"
   sodipodi:docname="team-add.svg"
   inkscape:export-filename="/home/gajop/games_spring/SB/SB-C.sdd/LuaUI/images/scenedit/modifications/team-add.png"
   inkscape:export-xdpi="90"
   inkscape:export-ydpi="90">
  <defs
     id="defs3554" />
  <sodipodi:namedview
     id="base"
     pagecolor="#000000"
     bordercolor="#666666"
     borderopacity="1.0"
     inkscape:pageopacity="0"
     inkscape:pageshadow="2"
     inkscape:zoom="0.99574998"
     inkscape:cx="195.56374"
     inkscape:cy="190.36877"
     inkscape:document-units="px"
     inkscape:current-layer="layer1"
     showgrid="false"
     units="px"
     inkscape:window-width="1855"
     inkscape:window-height="1056"
     inkscape:window-x="65"
     inkscape:window-y="24"
     inkscape:window-maximized="1" />
  <metadata
     id="metadata3557">
    <rdf:RDF>
      <cc:Work
         rdf:about="">
        <dc:format>image/svg+xml</dc:format>
        <dc:type
           rdf:resource="http://purl.org/dc/dcmitype/StillImage" />
        <dc:title />
      </cc:Work>
    </rdf:RDF>
  </metadata>
  <g
     inkscape:label="Layer 1"
     inkscape:groupmode="layer"
     id="layer1"
     transform="translate(0,-540.36219)">
    <rect
       style="fill:#ffffff"
       id="rect3591-1"
       width="84.859909"
       height="229.37032"
       x="-699.96277"
       y="279.70242"
       transform="matrix(0,-1,1,0,0,0)" />
    <rect
       style="fill:#ffffff"
       id="rect3591-1-2"
       width="84.859909"
       height="229.37032"
       x="351.95764"
       y="542.84766" />
    <path
       inkscape:connector-curvature="0"
       style="fill:#ffffff"
       d="m 151.94414,551.02498 c -24.22132,3.1461 -46.18388,31.55841 -46.18388,68.34858 0,20.27392 7.01885,38.20512 17.30612,50.60189 l 12.27341,14.7851 -18.88384,3.54933 c -13.3722,2.51377 -23.176414,9.57824 -31.557368,21.08041 -8.380952,11.50321 -14.78821,27.53017 -19.278784,45.99936 -8.130096,33.46162 -9.91824,74.31735 -10.20227,110.33213 l 44.437196,0 12.201876,163.61362 c 30.98828,6.995 64.07361,6.7483 93.91852,0.026 l 10.79521,-163.63848 42.31008,0 c -0.028,-36.45638 -0.49446,-77.87602 -7.86162,-111.59057 -4.06141,-18.59048 -10.21885,-34.59359 -18.70036,-45.96619 -8.48461,-11.37156 -18.74182,-18.39456 -33.75498,-20.7207 l -19.27256,-2.98543 12.1656,-15.24224 c 9.84257,-12.3325 16.51519,-30.05845 16.51519,-49.84206 0,-39.22307 -24.5209,-68.25424 -51.20726,-68.25424 z"
       id="path4" />
  </g>
</svg>
