<?xml version="1.0" encoding="UTF-8" standalone="no"?>
<!-- Created with Inkscape (http://www.inkscape.org/) -->

<svg
   xmlns:dc="http://purl.org/dc/elements/1.1/"
   xmlns:cc="http://creativecommons.org/ns#"
   xmlns:rdf="http://www.w3.org/1999/02/22-rdf-syntax-ns#"
   xmlns:svg="http://www.w3.org/2000/svg"
   xmlns="http://www.w3.org/2000/svg"
   xmlns:sodipodi="http://sodipodi.sourceforge.net/DTD/sodipodi-0.dtd"
   xmlns:inkscape="http://www.inkscape.org/namespaces/inkscape"
   width="512"
   height="512"
   viewBox="0 0 511.99999 511.99999"
   id="svg3552"
   version="1.1"
   inkscape:version="0.91 r13725"
   sodipodi:docname="trigger-duplicate2.svg"
   inkscape:export-filename="/home/gajop/games_spring/SB/SB-C.sdd/LuaUI/images/scenedit/trigger-duplicate.png"
   inkscape:export-xdpi="90"
   inkscape:export-ydpi="90">
  <defs
     id="defs3554" />
  <sodipodi:namedview
     id="base"
     pagecolor="#000000"
     bordercolor="#666666"
     borderopacity="1.0"
     inkscape:pageopacity="0"
     inkscape:pageshadow="2"
     inkscape:zoom="0.49787499"
     inkscape:cx="-325.27467"
     inkscape:cy="53.57421"
     inkscape:document-units="px"
     inkscape:current-layer="layer1"
     showgrid="false"
     units="px"
     inkscape:window-width="1855"
     inkscape:window-height="1056"
     inkscape:window-x="65"
     inkscape:window-y="24"
     inkscape:window-maximized="1" />
  <metadata
     id="metadata3557">
    <rdf:RDF>
      <cc:Work
         rdf:about="">
        <dc:format>image/svg+xml</dc:format>
        <dc:type
           rdf:resource="http://purl.org/dc/dcmitype/StillImage" />
        <dc:title></dc:title>
      </cc:Work>
    </rdf:RDF>
  </metadata>
  <g
     inkscape:label="Layer 1"
     inkscape:groupmode="layer"
     id="layer1"
     transform="translate(0,-540.36219)">
    <path
       inkscape:connector-curvature="0"
       style="fill:#ffffff"
       d="m 173.9195,695.50454 c -18.63628,1.69096 -36.83179,6.11518 -53.48992,13.41767 10.98016,23.40554 10.16004,47.65407 -4.8007,58.8707 -14.88431,11.15661 -38.616334,5.69011 -57.954144,-11.20879 -11.605972,13.89632 -20.957331,29.54716 -27.771901,46.88255 24.167805,8.81057 40.459456,26.90747 37.819787,45.36374 -2.641811,18.45626 -23.358393,31.2474 -49.025701,32.92907 1.670243,18.42841 6.365211,36.27529 13.528391,52.77554 12.723284,-5.84514 25.57015,-7.92257 36.501748,-6.38521 9.309916,1.33591 17.093196,5.01143 22.257529,11.89958 11.299501,15.07147 5.4315,39.0864 -11.987463,58.55852 13.942023,11.68029 30.158674,21.03449 47.574064,27.88259 8.80842,-24.1663 26.90033,-40.4587 45.36373,-37.81831 18.4627,2.64109 31.24742,23.35771 32.92909,49.02501 18.63628,-1.6896 36.83179,-6.1116 53.48992,-13.4163 -11.26307,-23.5727 -10.18719,-48.28413 4.88857,-59.58435 6.88672,-5.16503 16.12234,-6.44523 25.42799,-5.09002 10.79584,1.54308 22.2818,7.32249 32.54973,16.27379 11.49309,-13.81987 21.00305,-29.65431 27.7719,-46.85967 -24.16781,-8.80985 -40.45946,-26.89891 -37.81836,-45.36375 2.64109,-18.46411 23.33553,-31.27026 49.00284,-32.95121 -1.68596,-18.53413 -6.26806,-36.19312 -13.50625,-52.77482 -23.29768,10.79943 -47.62121,9.39065 -58.78141,-5.49152 -11.21306,-14.96217 -5.18075,-38.47703 11.92174,-57.86555 -13.94489,-11.6817 -30.18154,-21.03663 -47.59622,-27.88406 -8.80985,24.16637 -26.90176,40.47731 -45.36373,37.83978 -18.46412,-2.63824 -31.25027,-23.35767 -32.9298,-49.02498 z m 15.47083,67.95703 c 56.88398,0 103.14071,46.25815 103.14071,103.14 0,56.88399 -46.25673,103.14072 -103.13999,103.14072 -56.88257,0 -103.139304,-46.25673 -103.139304,-103.14 0,-56.88257 46.256734,-103.13929 103.140014,-103.13929 z m 0,13.35051 c -49.66723,0 -89.788781,40.12154 -89.788781,89.78949 0,49.66864 40.121551,89.79163 89.789501,89.79163 49.66865,0 89.79162,-40.12298 89.79162,-89.79163 0,-49.6658 -40.12297,-89.78878 -89.79162,-89.78878 z m 0.0236,10.80515 c 43.64492,0 79.02935,35.38371 79.02935,79.02863 0,43.64563 -35.38372,79.02935 -79.02935,79.02935 -43.64564,0 -79.02936,-35.38372 -79.02936,-79.03007 0,-43.64563 35.38372,-79.02934 79.02936,-79.02934 z"
       id="path4" />
    <rect
       style="fill:#ffffff"
       id="rect3591-1"
       width="84.859909"
       height="229.37032"
       x="-699.96277"
       y="279.70242"
       transform="matrix(0,-1,1,0,0,0)" />
    <rect
       style="fill:#ffffff"
       id="rect3591-1-2"
       width="84.859909"
       height="229.37032"
       x="351.95764"
       y="542.84766" />
  </g>
</svg>
