<?xml version="1.0" encoding="UTF-8" standalone="no"?>
<!-- Created with Inkscape (http://www.inkscape.org/) -->

<svg
   xmlns:dc="http://purl.org/dc/elements/1.1/"
   xmlns:cc="http://creativecommons.org/ns#"
   xmlns:rdf="http://www.w3.org/1999/02/22-rdf-syntax-ns#"
   xmlns:svg="http://www.w3.org/2000/svg"
   xmlns="http://www.w3.org/2000/svg"
   xmlns:sodipodi="http://sodipodi.sourceforge.net/DTD/sodipodi-0.dtd"
   xmlns:inkscape="http://www.inkscape.org/namespaces/inkscape"
   width="512"
   height="512"
   viewBox="0 0 511.99999 511.99999"
   id="svg3552"
   version="1.1"
   inkscape:version="0.91 r13725"
   sodipodi:docname="trigger-inspect.svg"
   inkscape:export-filename="/home/gajop/games_spring/SB/SB-C.sdd/LuaUI/images/scenedit/trigger-inspect.png"
   inkscape:export-xdpi="90"
   inkscape:export-ydpi="90">
  <defs
     id="defs3554" />
  <sodipodi:namedview
     id="base"
     pagecolor="#000000"
     bordercolor="#666666"
     borderopacity="1.0"
     inkscape:pageopacity="0"
     inkscape:pageshadow="2"
     inkscape:zoom="0.35205078"
     inkscape:cx="219.04105"
     inkscape:cy="139.89045"
     inkscape:document-units="px"
     inkscape:current-layer="layer1"
     showgrid="false"
     units="px"
     inkscape:window-width="1215"
     inkscape:window-height="696"
     inkscape:window-x="1985"
     inkscape:window-y="24"
     inkscape:window-maximized="1" />
  <metadata
     id="metadata3557">
    <rdf:RDF>
      <cc:Work
         rdf:about="">
        <dc:format>image/svg+xml</dc:format>
        <dc:type
           rdf:resource="http://purl.org/dc/dcmitype/StillImage" />
        <dc:title></dc:title>
      </cc:Work>
    </rdf:RDF>
  </metadata>
  <g
     inkscape:label="Layer 1"
     inkscape:groupmode="layer"
     id="layer1"
     transform="translate(0,-540.36219)">
    <path
       inkscape:connector-curvature="0"
       style="fill:#ffffff"
       d="m 330.59154,752.6 c -13.19179,1.19696 -26.07158,4.32866 -37.86312,9.49777 7.77236,16.56773 7.19184,33.73217 -3.39819,41.67192 -10.53595,7.89727 -27.33477,4.02777 -41.02314,-7.93419 -8.21534,9.83658 -14.83475,20.9151 -19.65848,33.18604 17.1073,6.23661 28.63943,19.04659 26.77092,32.11096 -1.87002,13.06436 -16.53435,22.11863 -34.70309,23.30901 1.18229,13.04464 4.50565,25.67761 9.57614,37.35741 9.00625,-4.13753 18.09996,-5.60804 25.83795,-4.5198 6.59007,0.94568 12.09951,3.54741 15.7551,8.42325 7.99841,10.66838 3.84472,27.6675 -8.48538,41.45091 9.86893,8.26792 21.34797,14.8894 33.67554,19.73684 6.23509,-17.10626 19.04153,-28.63887 32.11095,-26.76991 13.06892,1.86954 22.11865,16.53392 23.30903,34.70261 13.19178,-1.19594 26.07156,-4.32612 37.8631,-9.49678 -7.97261,-16.68607 -7.21105,-34.17823 3.46041,-42.17711 4.87479,-3.65603 11.41227,-4.56223 17.99933,-3.60297 7.64188,1.09231 15.77229,5.18322 23.04049,11.51949 8.13544,-9.78244 14.86711,-20.99092 19.65848,-33.16987 -17.10731,-6.23615 -28.63943,-19.04055 -26.76992,-32.11097 1.86951,-13.06991 16.51817,-22.13481 34.68691,-23.32468 -1.19341,-13.11949 -4.43687,-25.61948 -9.56047,-37.35693 -16.49137,7.64443 -33.70891,6.64723 -41.60872,-3.8872 -7.93722,-10.59105 -3.66722,-27.23616 8.43887,-40.96042 -9.87096,-8.26896 -21.36416,-14.89089 -33.69123,-19.73788 -6.2361,17.10629 -19.04254,28.65207 -32.11095,26.78508 C 340.83216,785.43509 331.78141,770.76874 330.59254,752.6 Z m 10.95111,48.10374 c 40.26561,0 73.00867,32.74406 73.00867,73.00816 0,40.26564 -32.74306,73.00866 -73.00817,73.00866 -40.26461,0 -73.00768,-32.74302 -73.00768,-73.00815 0,-40.26461 32.74307,-73.00767 73.00818,-73.00767 z m 0,9.45022 c -35.15721,0 -63.55745,28.40023 -63.55745,63.55794 0,35.15822 28.40024,63.55951 63.55795,63.55951 35.15821,0 63.55945,-28.40129 63.55945,-63.55951 0,-35.15619 -28.40124,-63.55744 -63.55945,-63.55744 z m 0.0167,7.64847 c 30.89428,0 55.94133,25.04654 55.94133,55.94082 0,30.89479 -25.04654,55.94131 -55.94133,55.94131 -30.89479,0 -55.94134,-25.04652 -55.94134,-55.94182 0,-30.89477 25.04655,-55.94131 55.94134,-55.94131 z"
       id="path4" />
    <path
       inkscape:connector-curvature="0"
       style="fill:#ffffff"
       d="m 204.82983,560.19084 c -25.34591,0 -50.70448,9.64628 -70.01037,28.95156 -37.202088,37.20213 -38.552138,96.84328 -4.06219,135.6833 l -10.00774,9.98624 8.40214,8.40214 9.98745,-10.00651 c 38.83876,34.48999 98.47929,33.13924 135.68202,-4.06288 38.60987,-38.60915 38.61051,-101.39249 0,-140.00163 C 255.51717,569.83712 230.1776,560.1902 204.82983,560.1902 Z m 0,11.77066 c 22.2894,0 44.56932,8.52253 61.61012,25.56341 34.08095,34.08086 34.08031,89.15771 0,123.2374 -32.67384,32.67383 -84.63005,34.01625 -118.89807,4.04246 l 0.13808,-0.13745 c -1.4902,-1.30002 -2.96007,-2.64425 -4.37925,-4.06286 -1.39949,-1.39885 -2.71912,-2.85098 -4.00321,-4.31963 l -0.13809,0.13953 c -29.97501,-34.26807 -28.63193,-86.22547 4.04189,-118.89932 17.04142,-17.04088 39.3391,-25.5634 61.62853,-25.5634 z m 0,11.92966 c -19.22027,0 -38.44687,7.35588 -53.14585,22.05487 -29.39923,29.39918 -29.39923,76.87731 0,106.27515 6.43001,6.43131 13.71735,11.46309 21.49994,15.08083 -15.79601,-12.1036 -25.98003,-31.15642 -25.98003,-52.59416 0,-9.71673 2.08753,-18.95272 5.84661,-27.26737 -2.64111,12.98997 0.27903,25.923 9.17576,34.81785 15.58867,15.58992 43.59217,12.88402 62.53976,-6.06351 18.94758,-18.94763 21.65275,-46.95042 6.06219,-62.54035 -1.50604,-1.50674 -3.13447,-2.83642 -4.8542,-4.00321 28.61799,5.48383 50.70068,29.38839 53.42486,58.89482 2.81553,-22.23871 -4.3247,-45.4831 -21.4416,-62.6007 -14.69896,-14.699 -33.90656,-22.05473 -53.12681,-22.05473 z m -99.47682,152.26892 -85.488,85.48732 21.916541,21.91718 85.488679,-85.48796 -21.91785,-21.91718 z m -86.81587,100.9049 -10.1459749,10.1249 8.3831189,8.3832 10.125669,-10.146 -8.362813,-8.3628 z"
       id="path4-3" />
  </g>
</svg>
